<?xml version="1.0" encoding="us-ascii" standalone="no"?><svg xmlns="http://www.w3.org/2000/svg" xmlns:xlink="http://www.w3.org/1999/xlink" contentStyleType="text/css" height="1016px" preserveAspectRatio="none" style="width:1256px;height:1016px;background:#FFFFFF;" version="1.1" viewBox="0 0 1256 1016" width="1256px" zoomAndPan="magnify"><defs/><g><!--cluster Sistema de Movilidad Internacional--><g id="cluster_Sistema de Movilidad Internacional"><path d="M111.5,6 L358.5,6 A3.75,3.75 0 0 1 361,8.5 L368,29.6094 L1246.5,29.6094 A2.5,2.5 0 0 1 1249,32.1094 L1249,937.5 A2.5,2.5 0 0 1 1246.5,940 L111.5,940 A2.5,2.5 0 0 1 109,937.5 L109,8.5 A2.5,2.5 0 0 1 111.5,6 " fill="none" style="stroke:#000000;stroke-width:1.5;"/><line style="stroke:#000000;stroke-width:1.5;" x1="109" x2="368" y1="29.6094" y2="29.6094"/><text fill="#000000" font-family="sans-serif" font-size="14" font-weight="bold" lengthAdjust="spacing" textLength="246" x="113" y="22.5332">Sistema de Movilidad Internacional</text></g><!--cluster Gesti?n de Programas--><g id="cluster_Gesti&#243;n de Programas"><path d="M179.5,324 L336.5,324 A3.75,3.75 0 0 1 339,326.5 L346,347.6094 L719.5,347.6094 A2.5,2.5 0 0 1 722,350.1094 L722,596.5 A2.5,2.5 0 0 1 719.5,599 L179.5,599 A2.5,2.5 0 0 1 177,596.5 L177,326.5 A2.5,2.5 0 0 1 179.5,324 " fill="none" style="stroke:#000000;stroke-width:1.5;"/><line style="stroke:#000000;stroke-width:1.5;" x1="177" x2="346" y1="347.6094" y2="347.6094"/><text fill="#000000" font-family="sans-serif" font-size="14" font-weight="bold" lengthAdjust="spacing" textLength="156" x="181" y="340.5332">Gesti&#243;n de Programas</text></g><!--cluster Gesti?n de Usuarios--><g id="cluster_Gesti&#243;n de Usuarios"><path d="M185.5,639 L329.5,639 A3.75,3.75 0 0 1 332,641.5 L339,662.6094 L713.5,662.6094 A2.5,2.5 0 0 1 716,665.1094 L716,905.5 A2.5,2.5 0 0 1 713.5,908 L185.5,908 A2.5,2.5 0 0 1 183,905.5 L183,641.5 A2.5,2.5 0 0 1 185.5,639 " fill="none" style="stroke:#000000;stroke-width:1.5;"/><line style="stroke:#000000;stroke-width:1.5;" x1="183" x2="339" y1="662.6094" y2="662.6094"/><text fill="#000000" font-family="sans-serif" font-size="14" font-weight="bold" lengthAdjust="spacing" textLength="143" x="187" y="655.5332">Gesti&#243;n de Usuarios</text></g><!--cluster Gesti?n de Pa?ses--><g id="cluster_Gesti&#243;n de Pa&#237;ses"><path d="M764.5,492 L892.5,492 A3.75,3.75 0 0 1 895,494.5 L902,515.6094 L1214.5,515.6094 A2.5,2.5 0 0 1 1217,518.1094 L1217,750.5 A2.5,2.5 0 0 1 1214.5,753 L764.5,753 A2.5,2.5 0 0 1 762,750.5 L762,494.5 A2.5,2.5 0 0 1 764.5,492 " fill="none" style="stroke:#000000;stroke-width:1.5;"/><line style="stroke:#000000;stroke-width:1.5;" x1="762" x2="902" y1="515.6094" y2="515.6094"/><text fill="#000000" font-family="sans-serif" font-size="14" font-weight="bold" lengthAdjust="spacing" textLength="127" x="766" y="508.5332">Gesti&#243;n de Pa&#237;ses</text></g><!--cluster Acciones Usuario Final--><g id="cluster_Acciones Usuario Final"><path d="M143.5,58 L304.5,58 A3.75,3.75 0 0 1 307,60.5 L314,81.6094 L442.5,81.6094 A2.5,2.5 0 0 1 445,84.1094 L445,281.5 A2.5,2.5 0 0 1 442.5,284 L143.5,284 A2.5,2.5 0 0 1 141,281.5 L141,60.5 A2.5,2.5 0 0 1 143.5,58 " fill="none" style="stroke:#000000;stroke-width:1.5;"/><line style="stroke:#000000;stroke-width:1.5;" x1="141" x2="314" y1="81.6094" y2="81.6094"/><text fill="#000000" font-family="sans-serif" font-size="14" font-weight="bold" lengthAdjust="spacing" textLength="160" x="145" y="74.5332">Acciones Usuario Final</text></g><g id="elem_P1"><ellipse cx="293.1309" cy="534.8262" fill="#F1F1F1" rx="92.1309" ry="20.8262" style="stroke:#181818;stroke-width:0.5;"/><text fill="#000000" font-family="sans-serif" font-size="14" lengthAdjust="spacing" textLength="143" x="221.6309" y="538.5547">Ver lista de programas</text></g><g id="elem_P2"><ellipse cx="292.7516" cy="459.9503" fill="#F1F1F1" rx="82.7516" ry="18.9503" style="stroke:#181818;stroke-width:0.5;"/><text fill="#000000" font-family="sans-serif" font-size="14" lengthAdjust="spacing" textLength="121" x="232.2516" y="463.6788">Crear un programa</text></g><g id="elem_P3"><ellipse cx="293.169" cy="387.0338" fill="#F1F1F1" rx="83.169" ry="19.0338" style="stroke:#181818;stroke-width:0.5;"/><text fill="#000000" font-family="sans-serif" font-size="14" lengthAdjust="spacing" textLength="122" x="232.169" y="390.7623">Editar un programa</text></g><g id="elem_P4"><ellipse cx="589.6756" cy="536.1351" fill="#F1F1F1" rx="88.6756" ry="20.1351" style="stroke:#181818;stroke-width:0.5;"/><text fill="#000000" font-family="sans-serif" font-size="14" lengthAdjust="spacing" textLength="135" x="522.1756" y="539.8636">Eliminar un programa</text></g><g id="elem_P5"><ellipse cx="589.6128" cy="457.1226" fill="#F1F1F1" rx="108.6128" ry="24.1226" style="stroke:#181818;stroke-width:0.5;"/><text fill="#000000" font-family="sans-serif" font-size="14" lengthAdjust="spacing" textLength="180" x="499.6128" y="460.8511">Ver detalles de un programa</text></g><g id="elem_U1"><ellipse cx="293.1163" cy="845.1233" fill="#F1F1F1" rx="86.1163" ry="19.6233" style="stroke:#181818;stroke-width:0.5;"/><text fill="#000000" font-family="sans-serif" font-size="14" lengthAdjust="spacing" textLength="129" x="228.6163" y="848.8518">Ver lista de usuarios</text></g><g id="elem_U2"><ellipse cx="293.1203" cy="771.8241" fill="#F1F1F1" rx="77.1203" ry="17.8241" style="stroke:#181818;stroke-width:0.5;"/><text fill="#000000" font-family="sans-serif" font-size="14" lengthAdjust="spacing" textLength="107" x="237.2783" y="776.1856">Crear un usuario</text></g><g id="elem_U3"><ellipse cx="293.0069" cy="700.9014" fill="#F1F1F1" rx="77.5069" ry="17.9014" style="stroke:#181818;stroke-width:0.5;"/><text fill="#000000" font-family="sans-serif" font-size="14" lengthAdjust="spacing" textLength="108" x="236.8567" y="705.216">Editar un usuario</text></g><g id="elem_U4"><ellipse cx="589.2516" cy="844.9503" fill="#F1F1F1" rx="82.7516" ry="18.9503" style="stroke:#181818;stroke-width:0.5;"/><text fill="#000000" font-family="sans-serif" font-size="14" lengthAdjust="spacing" textLength="121" x="528.7516" y="848.6788">Eliminar un usuario</text></g><g id="elem_U5"><ellipse cx="589.2928" cy="767.8586" fill="#F1F1F1" rx="102.2928" ry="22.8586" style="stroke:#181818;stroke-width:0.5;"/><text fill="#000000" font-family="sans-serif" font-size="14" lengthAdjust="spacing" textLength="166" x="506.2928" y="771.5871">Ver detalles de un usuario</text></g><g id="elem_C1"><ellipse cx="866.6887" cy="691.0377" fill="#F1F1F1" rx="80.6887" ry="18.5377" style="stroke:#181818;stroke-width:0.5;"/><text fill="#000000" font-family="sans-serif" font-size="14" lengthAdjust="spacing" textLength="116" x="808.0015" y="694.9661">Ver lista de pa&#237;ses</text></g><g id="elem_C2"><ellipse cx="866.457" cy="620.7914" fill="#F1F1F1" rx="69.457" ry="16.2914" style="stroke:#181818;stroke-width:0.5;"/><text fill="#000000" font-family="sans-serif" font-size="14" lengthAdjust="spacing" textLength="86" x="820.457" y="625.308">Crear un pa&#237;s</text></g><g id="elem_C3"><ellipse cx="866.3041" cy="552.8608" fill="#F1F1F1" rx="69.8041" ry="16.3608" style="stroke:#181818;stroke-width:0.5;"/><text fill="#000000" font-family="sans-serif" font-size="14" lengthAdjust="spacing" textLength="87" x="819.8041" y="557.3774">Editar un pa&#237;s</text></g><g id="elem_C4"><ellipse cx="1099.981" cy="690.7962" fill="#F1F1F1" rx="74.481" ry="17.2962" style="stroke:#181818;stroke-width:0.5;"/><text fill="#000000" font-family="sans-serif" font-size="14" lengthAdjust="spacing" textLength="100" x="1046.981" y="695.3128">Eliminar un pa&#237;s</text></g><g id="elem_C5"><ellipse cx="1100.0017" cy="617.0003" fill="#F1F1F1" rx="93.0017" ry="21.0003" style="stroke:#181818;stroke-width:0.5;"/><text fill="#000000" font-family="sans-serif" font-size="14" lengthAdjust="spacing" textLength="145" x="1027.5017" y="620.7289">Ver detalles de un pa&#237;s</text></g><g id="elem_UF1"><ellipse cx="293.1585" cy="126.0317" fill="#F1F1F1" rx="108.1585" ry="24.0317" style="stroke:#181818;stroke-width:0.5;"/><text fill="#000000" font-family="sans-serif" font-size="14" lengthAdjust="spacing" textLength="179" x="203.6585" y="129.7602">Buscar programas por filtros</text></g><g id="elem_UF2"><ellipse cx="293.0083" cy="213.0017" fill="#F1F1F1" rx="128.0083" ry="28.0017" style="stroke:#181818;stroke-width:0.5;"/><text fill="#000000" font-family="sans-serif" font-size="14" lengthAdjust="spacing" textLength="222" x="182.0083" y="216.7302">Acceder a detalles de un programa</text></g><!--entity Admin--><g id="elem_Admin"><ellipse cx="49.5" cy="869.5" fill="#F1F1F1" rx="8" ry="8" style="stroke:#181818;stroke-width:0.5;"/><path d="M49.5,877.5 L49.5,904.5 M36.5,885.5 L62.5,885.5 M49.5,904.5 L36.5,919.5 M49.5,904.5 L62.5,919.5 " fill="none" style="stroke:#181818;stroke-width:0.5;"/><text fill="#000000" font-family="sans-serif" font-size="14" lengthAdjust="spacing" textLength="87" x="6" y="935.5332">Administrador</text></g><!--entity User--><g id="elem_User"><ellipse cx="49.5" cy="245.5" fill="#F1F1F1" rx="8" ry="8" style="stroke:#181818;stroke-width:0.5;"/><path d="M49.5,253.5 L49.5,280.5 M36.5,261.5 L62.5,261.5 M49.5,280.5 L36.5,295.5 M49.5,280.5 L62.5,295.5 " fill="none" style="stroke:#181818;stroke-width:0.5;"/><text fill="#000000" font-family="sans-serif" font-size="14" lengthAdjust="spacing" textLength="83" x="8" y="311.5332">Usuario Final</text></g><!--link Admin to Gesti?n de Programas--><g id="link_Admin_Gesti&#243;n de Programas"><path d="M54.56,860.53 C61.32,801.96 76.59,695.82 101,667 C130.065,632.685 176.7875,613.7375 216.745,603.3425 C221.7397,602.0431 226.6287,600.8774 231.3643,599.832 C232.5481,599.5706 227.8527,600.56 229.0166,600.3134 " fill="none" id="Admin-to-Gesti&#243;n de Programas" style="stroke:#181818;stroke-width:1.0;"/><polygon fill="#181818" points="234.8864,599.0703,225.2529,597.0218,229.9949,600.1062,226.9105,604.8482,234.8864,599.0703" style="stroke:#181818;stroke-width:1.0;"/></g><!--link Admin to Gesti?n de Usuarios--><g id="link_Admin_Gesti&#243;n de Usuarios"><path d="M93.12,900 C110.1825,900 130.8919,900 152.4198,900 C157.8018,900 163.235,900 168.6751,900 C171.3952,900 174.117,900 176.835,900 C178.194,900 179.5521,900 180.9085,900 C181.5867,900 176.2645,900 176.9418,900 " fill="none" id="Admin-to-Gesti&#243;n de Usuarios" style="stroke:#181818;stroke-width:1.0;"/><polygon fill="#181818" points="182.9418,900,173.9418,896,177.9418,900,173.9418,904,182.9418,900" style="stroke:#181818;stroke-width:1.0;"/></g><!--link Admin to Gesti?n de Pa?ses--><g id="link_Admin_Gesti&#243;n de Pa&#237;ses"><path d="M93.26,914.53 C95.86,915.1 98.46,915.6 101,916 C381.21,959.32 485.42,1009.83 738,881 C774.325,862.47 805.78,829.2325 828.3588,800.255 C839.6481,785.7662 848.7184,772.3425 855.0689,762.3547 C856.6565,759.8577 858.0742,757.5755 859.314,755.5451 C859.6239,755.0375 859.9228,754.5456 860.2104,754.0701 C860.3542,753.8323 860.4952,753.5986 860.6333,753.3691 C860.7024,753.2543 857.6819,758.2844 857.7495,758.1717 " fill="none" id="Admin-to-Gesti&#243;n de Pa&#237;ses" style="stroke:#181818;stroke-width:1.0;"/><polygon fill="#181818" points="860.8385,753.0279,852.7759,758.6843,858.2644,757.3144,859.6343,762.8028,860.8385,753.0279" style="stroke:#181818;stroke-width:1.0;"/></g><!--link User to Acciones Usuario Final--><g id="link_User_Acciones Usuario Final"><path d="M91.19,276 C99.6588,276 109.0838,276 119.1014,276 C124.1103,276 129.2673,276 134.5271,276 C135.842,276 137.1634,276 138.4904,276 C139.154,276 133.8189,276 134.4852,276 " fill="none" id="User-to-Acciones Usuario Final" style="stroke:#181818;stroke-width:1.0;"/><polygon fill="#181818" points="140.4852,276,131.4852,272,135.4852,276,131.4852,280,140.4852,276" style="stroke:#181818;stroke-width:1.0;"/></g><!--SRC=[ZPInJiCm48RtFCKfUmSAh4YbeeW1gH8g-yc-5WlNhiuE2-eZCV48VJ4kIPDGQfnwjB-p__lrdosj8qGFR3Pl4RHXKj5uLw2Adg6SwQrn9aH6xRa43D3iTCUhK24R3mlZq3R7gq1S53jKxxWXA5-abhO8ck3PVnXhD6fuSf7OeP9twghFeW1PpSKmcTn1-KWXciEtgykMx3UCMmnbZZeAoKDBF7m54gQ1UetfrqGM75SLI64GyfKOh7JKzBCRKEbxUNMEpvcGeN8zsfBJS_91cvX2hnEeDT9S2hv92zOKqLeAjUQpcjkcPfznf7Tsr92g9-iSvFmuaYsOjUE4777ZXBtCZ9EISI-w08rdemFbtdas6JNOOlbO3DnO9WRoma0C1Ma7PggUL0hmPzeJ9jnNGOcCVZHW9x_4sjZ8NImM2JVa0T8Y3BDPNIscl-NL7qqxul_eA_O_]--></g></svg>