<?xml version="1.0" encoding="us-ascii" standalone="no"?><svg xmlns="http://www.w3.org/2000/svg" xmlns:xlink="http://www.w3.org/1999/xlink" contentStyleType="text/css" height="657px" preserveAspectRatio="none" style="width:737px;height:657px;background:#FFFFFF;" version="1.1" viewBox="0 0 737 657" width="737px" zoomAndPan="magnify"><defs/><g><!--cluster Frontend--><g id="cluster_Frontend"><path d="M283.5,107.5 L349.5,107.5 A3.75,3.75 0 0 1 352,110 L359,131.1094 L442.5,131.1094 A2.5,2.5 0 0 1 445,133.6094 L445,205 A2.5,2.5 0 0 1 442.5,207.5 L283.5,207.5 A2.5,2.5 0 0 1 281,205 L281,110 A2.5,2.5 0 0 1 283.5,107.5 " fill="none" style="stroke:#000000;stroke-width:1.5;"/><line style="stroke:#000000;stroke-width:1.5;" x1="281" x2="359" y1="131.1094" y2="131.1094"/><text fill="#000000" font-family="sans-serif" font-size="14" font-weight="bold" lengthAdjust="spacing" textLength="65" x="285" y="124.0332">Frontend</text></g><!--cluster Backend--><g id="cluster_Backend"><path d="M8.5,231.5 L70.5,231.5 A3.75,3.75 0 0 1 73,234 L80,255.1094 L727.5,255.1094 A2.5,2.5 0 0 1 730,257.6094 L730,571 A2.5,2.5 0 0 1 727.5,573.5 L8.5,573.5 A2.5,2.5 0 0 1 6,571 L6,234 A2.5,2.5 0 0 1 8.5,231.5 " fill="none" style="stroke:#000000;stroke-width:1.5;"/><line style="stroke:#000000;stroke-width:1.5;" x1="6" x2="80" y1="255.1094" y2="255.1094"/><text fill="#000000" font-family="sans-serif" font-size="14" font-weight="bold" lengthAdjust="spacing" textLength="61" x="10" y="248.0332">Backend</text></g><!--cluster Auth Controller--><g id="cluster_Auth Controller"><path d="M32.5,339.5 L140.5,339.5 A3.75,3.75 0 0 1 143,342 L150,363.1094 L167.5,363.1094 A2.5,2.5 0 0 1 170,365.6094 L170,547 A2.5,2.5 0 0 1 167.5,549.5 L32.5,549.5 A2.5,2.5 0 0 1 30,547 L30,342 A2.5,2.5 0 0 1 32.5,339.5 " fill="none" style="stroke:#000000;stroke-width:1.5;"/><line style="stroke:#000000;stroke-width:1.5;" x1="30" x2="150" y1="363.1094" y2="363.1094"/><text fill="#000000" font-family="sans-serif" font-size="14" font-weight="bold" lengthAdjust="spacing" textLength="107" x="34" y="356.0332">Auth Controller</text></g><!--cluster Program Controller--><g id="cluster_Program Controller"><path d="M196.5,339.5 L331.5,339.5 A3.75,3.75 0 0 1 334,342 L341,363.1094 L355.5,363.1094 A2.5,2.5 0 0 1 358,365.6094 L358,547 A2.5,2.5 0 0 1 355.5,549.5 L196.5,549.5 A2.5,2.5 0 0 1 194,547 L194,342 A2.5,2.5 0 0 1 196.5,339.5 " fill="none" style="stroke:#000000;stroke-width:1.5;"/><line style="stroke:#000000;stroke-width:1.5;" x1="194" x2="341" y1="363.1094" y2="363.1094"/><text fill="#000000" font-family="sans-serif" font-size="14" font-weight="bold" lengthAdjust="spacing" textLength="134" x="198" y="356.0332">Program Controller</text></g><!--cluster User Controller--><g id="cluster_User Controller"><path d="M384.5,339.5 L493.5,339.5 A3.75,3.75 0 0 1 496,342 L503,363.1094 L519.5,363.1094 A2.5,2.5 0 0 1 522,365.6094 L522,547 A2.5,2.5 0 0 1 519.5,549.5 L384.5,549.5 A2.5,2.5 0 0 1 382,547 L382,342 A2.5,2.5 0 0 1 384.5,339.5 " fill="none" style="stroke:#000000;stroke-width:1.5;"/><line style="stroke:#000000;stroke-width:1.5;" x1="382" x2="503" y1="363.1094" y2="363.1094"/><text fill="#000000" font-family="sans-serif" font-size="14" font-weight="bold" lengthAdjust="spacing" textLength="108" x="386" y="356.0332">User Controller</text></g><!--cluster Country Controller--><g id="cluster_Country Controller"><path d="M548.5,339.5 L679.5,339.5 A3.75,3.75 0 0 1 682,342 L689,363.1094 L703.5,363.1094 A2.5,2.5 0 0 1 706,365.6094 L706,547 A2.5,2.5 0 0 1 703.5,549.5 L548.5,549.5 A2.5,2.5 0 0 1 546,547 L546,342 A2.5,2.5 0 0 1 548.5,339.5 " fill="none" style="stroke:#000000;stroke-width:1.5;"/><line style="stroke:#000000;stroke-width:1.5;" x1="546" x2="689" y1="363.1094" y2="363.1094"/><text fill="#000000" font-family="sans-serif" font-size="14" font-weight="bold" lengthAdjust="spacing" textLength="130" x="550" y="356.0332">Country Controller</text></g><!--entity ReactApp--><g id="elem_ReactApp"><rect fill="#F1F1F1" height="47.6094" rx="2.5" ry="2.5" style="stroke:#181818;stroke-width:0.5;" width="131" x="297.5" y="143.5"/><rect fill="#F1F1F1" height="10" style="stroke:#181818;stroke-width:0.5;" width="15" x="408.5" y="148.5"/><rect fill="#F1F1F1" height="2" style="stroke:#181818;stroke-width:0.5;" width="4" x="406.5" y="150.5"/><rect fill="#F1F1F1" height="2" style="stroke:#181818;stroke-width:0.5;" width="4" x="406.5" y="154.5"/><text fill="#000000" font-family="sans-serif" font-size="14" lengthAdjust="spacing" textLength="91" x="312.5" y="178.0332">React - Next.js</text></g><!--entity Gateway--><g id="elem_Gateway"><rect fill="#F1F1F1" height="47.6094" rx="2.5" ry="2.5" style="stroke:#181818;stroke-width:0.5;" width="120" x="303" y="267.5"/><rect fill="#F1F1F1" height="10" style="stroke:#181818;stroke-width:0.5;" width="15" x="403" y="272.5"/><rect fill="#F1F1F1" height="2" style="stroke:#181818;stroke-width:0.5;" width="4" x="401" y="274.5"/><rect fill="#F1F1F1" height="2" style="stroke:#181818;stroke-width:0.5;" width="4" x="401" y="278.5"/><text fill="#000000" font-family="sans-serif" font-size="14" lengthAdjust="spacing" textLength="80" x="318" y="302.0332">API Gateway</text></g><!--entity AuthCtrl--><g id="elem_AuthCtrl"><ellipse cx="107" cy="391.5" fill="#F1F1F1" rx="12" ry="12" style="stroke:#181818;stroke-width:0.5;"/><polygon fill="#181818" points="103,379.5,109,374.5,107,379.5,109,384.5,103,379.5" style="stroke:#181818;stroke-width:1.0;"/><text fill="#000000" font-family="sans-serif" font-size="14" lengthAdjust="spacing" textLength="80" x="67" y="422.0332">Auth Service</text></g><!--entity AuthService--><g id="elem_AuthService"><rect fill="#F1F1F1" height="47.6094" rx="2.5" ry="2.5" style="stroke:#181818;stroke-width:0.5;" width="107" x="46.5" y="485.5"/><rect fill="#F1F1F1" height="10" style="stroke:#181818;stroke-width:0.5;" width="15" x="133.5" y="490.5"/><rect fill="#F1F1F1" height="2" style="stroke:#181818;stroke-width:0.5;" width="4" x="131.5" y="492.5"/><rect fill="#F1F1F1" height="2" style="stroke:#181818;stroke-width:0.5;" width="4" x="131.5" y="496.5"/><text fill="#000000" font-family="sans-serif" font-size="14" lengthAdjust="spacing" textLength="67" x="61.5" y="520.0332">Auth Logic</text></g><!--entity ProgramCtrl--><g id="elem_ProgramCtrl"><ellipse cx="282" cy="391.5" fill="#F1F1F1" rx="12" ry="12" style="stroke:#181818;stroke-width:0.5;"/><polygon fill="#181818" points="278,379.5,284,374.5,282,379.5,284,384.5,278,379.5" style="stroke:#181818;stroke-width:1.0;"/><text fill="#000000" font-family="sans-serif" font-size="14" lengthAdjust="spacing" textLength="105" x="229.5" y="422.0332">Program Service</text></g><!--entity ProgramService--><g id="elem_ProgramService"><rect fill="#F1F1F1" height="47.6094" rx="2.5" ry="2.5" style="stroke:#181818;stroke-width:0.5;" width="132" x="210" y="485.5"/><rect fill="#F1F1F1" height="10" style="stroke:#181818;stroke-width:0.5;" width="15" x="322" y="490.5"/><rect fill="#F1F1F1" height="2" style="stroke:#181818;stroke-width:0.5;" width="4" x="320" y="492.5"/><rect fill="#F1F1F1" height="2" style="stroke:#181818;stroke-width:0.5;" width="4" x="320" y="496.5"/><text fill="#000000" font-family="sans-serif" font-size="14" lengthAdjust="spacing" textLength="92" x="225" y="520.0332">Program Logic</text></g><!--entity UserCtrl--><g id="elem_UserCtrl"><ellipse cx="445" cy="391.5" fill="#F1F1F1" rx="12" ry="12" style="stroke:#181818;stroke-width:0.5;"/><polygon fill="#181818" points="441,379.5,447,374.5,445,379.5,447,384.5,441,379.5" style="stroke:#181818;stroke-width:1.0;"/><text fill="#000000" font-family="sans-serif" font-size="14" lengthAdjust="spacing" textLength="80" x="405" y="422.0332">User Service</text></g><!--entity UserService--><g id="elem_UserService"><rect fill="#F1F1F1" height="47.6094" rx="2.5" ry="2.5" style="stroke:#181818;stroke-width:0.5;" width="107" x="398.5" y="485.5"/><rect fill="#F1F1F1" height="10" style="stroke:#181818;stroke-width:0.5;" width="15" x="485.5" y="490.5"/><rect fill="#F1F1F1" height="2" style="stroke:#181818;stroke-width:0.5;" width="4" x="483.5" y="492.5"/><rect fill="#F1F1F1" height="2" style="stroke:#181818;stroke-width:0.5;" width="4" x="483.5" y="496.5"/><text fill="#000000" font-family="sans-serif" font-size="14" lengthAdjust="spacing" textLength="67" x="413.5" y="520.0332">User Logic</text></g><!--entity CountryCtrl--><g id="elem_CountryCtrl"><ellipse cx="619" cy="391.5" fill="#F1F1F1" rx="12" ry="12" style="stroke:#181818;stroke-width:0.5;"/><polygon fill="#181818" points="615,379.5,621,374.5,619,379.5,621,384.5,615,379.5" style="stroke:#181818;stroke-width:1.0;"/><text fill="#000000" font-family="sans-serif" font-size="14" lengthAdjust="spacing" textLength="101" x="568.5" y="422.0332">Country Service</text></g><!--entity CountryService--><g id="elem_CountryService"><rect fill="#F1F1F1" height="47.6094" rx="2.5" ry="2.5" style="stroke:#181818;stroke-width:0.5;" width="128" x="562" y="485.5"/><rect fill="#F1F1F1" height="10" style="stroke:#181818;stroke-width:0.5;" width="15" x="670" y="490.5"/><rect fill="#F1F1F1" height="2" style="stroke:#181818;stroke-width:0.5;" width="4" x="668" y="492.5"/><rect fill="#F1F1F1" height="2" style="stroke:#181818;stroke-width:0.5;" width="4" x="668" y="496.5"/><text fill="#000000" font-family="sans-serif" font-size="14" lengthAdjust="spacing" textLength="88" x="577" y="520.0332">Country Logic</text></g><!--entity Admin--><g id="elem_Admin"><ellipse cx="303" cy="14" fill="#F1F1F1" rx="8" ry="8" style="stroke:#181818;stroke-width:0.5;"/><path d="M303,22 L303,49 M290,30 L316,30 M303,49 L290,64 M303,49 L316,64 " fill="none" style="stroke:#181818;stroke-width:0.5;"/><text fill="#000000" font-family="sans-serif" font-size="14" lengthAdjust="spacing" textLength="87" x="259.5" y="80.0332">Administrador</text></g><!--entity User--><g id="elem_User"><ellipse cx="423" cy="14" fill="#F1F1F1" rx="8" ry="8" style="stroke:#181818;stroke-width:0.5;"/><path d="M423,22 L423,49 M410,30 L436,30 M423,49 L410,64 M423,49 L436,64 " fill="none" style="stroke:#181818;stroke-width:0.5;"/><text fill="#000000" font-family="sans-serif" font-size="14" lengthAdjust="spacing" textLength="83" x="381.5" y="80.0332">Usuario Final</text></g><!--entity DB--><g id="elem_DB"><path d="M411,603.5 C411,593.5 452,593.5 452,593.5 C452,593.5 493,593.5 493,603.5 L493,630.1094 C493,640.1094 452,640.1094 452,640.1094 C452,640.1094 411,640.1094 411,630.1094 L411,603.5 " fill="#F1F1F1" style="stroke:#181818;stroke-width:0.5;"/><path d="M411,603.5 C411,613.5 452,613.5 452,613.5 C452,613.5 493,613.5 493,603.5 " fill="none" style="stroke:#181818;stroke-width:0.5;"/><text fill="#000000" font-family="sans-serif" font-size="14" lengthAdjust="spacing" textLength="62" x="421" y="632.0332">MongoDB</text></g><!--entity JWT--><g id="elem_JWT"><path d="M50.5,600.5 L50.5,633.1094 A2.5,2.5 0 0 0 53,635.6094 L147,635.6094 A2.5,2.5 0 0 0 149.5,633.1094 L149.5,608 L139.5,598 L53,598 A2.5,2.5 0 0 0 50.5,600.5 " fill="#F1F1F1" style="stroke:#181818;stroke-width:0.5;"/><path d="M139.5,598 L139.5,605.5 A2.5,2.5 0 0 0 142,608 L149.5,608 " fill="#F1F1F1" style="stroke:#181818;stroke-width:0.5;"/><text fill="#000000" font-family="sans-serif" font-size="14" lengthAdjust="spacing" textLength="79" x="60.5" y="622.5332">JWT Tokens</text></g><!--link Admin to ReactApp--><g id="link_Admin_ReactApp"><path d="M321.98,83.79 C331.67,103.31 340.4646,121.0445 348.8046,137.8645 " fill="none" id="Admin-to-ReactApp" style="stroke:#181818;stroke-width:1.0;"/><polygon fill="#181818" points="351.47,143.24,351.0556,133.3999,349.2489,138.7604,343.8883,136.9537,351.47,143.24" style="stroke:#181818;stroke-width:1.0;"/></g><!--link User to ReactApp--><g id="link_User_ReactApp"><path d="M404.02,83.79 C394.33,103.31 385.5354,121.0445 377.1954,137.8645 " fill="none" id="User-to-ReactApp" style="stroke:#181818;stroke-width:1.0;"/><polygon fill="#181818" points="374.53,143.24,382.1117,136.9537,376.7511,138.7604,374.9444,133.3999,374.53,143.24" style="stroke:#181818;stroke-width:1.0;"/></g><!--link ReactApp to Gateway--><g id="link_ReactApp_Gateway"><path d="M363,191.73 C363,213.44 363,239.67 363,261.35 " fill="none" id="ReactApp-to-Gateway" style="stroke:#181818;stroke-width:1.0;"/><polygon fill="#181818" points="363,267.35,367,258.35,363,262.35,359,258.35,363,267.35" style="stroke:#181818;stroke-width:1.0;"/></g><!--link Gateway to AuthCtrl--><g id="link_Gateway_AuthCtrl"><path d="M302.61,299.89 C269.39,305.54 228.11,315.23 194,331.5 C170.81,342.56 152.5223,356.6591 136.1123,371.4091 " fill="none" id="Gateway-to-AuthCtrl" style="stroke:#181818;stroke-width:1.0;"/><polygon fill="#181818" points="131.65,375.42,141.0175,372.3785,135.3686,372.0776,135.6695,366.4287,131.65,375.42" style="stroke:#181818;stroke-width:1.0;"/></g><!--link Gateway to ProgramCtrl--><g id="link_Gateway_ProgramCtrl"><path d="M345.42,315.72 C332.12,333.3 317.5136,352.5978 304.0036,370.4278 " fill="none" id="Gateway-to-ProgramCtrl" style="stroke:#181818;stroke-width:1.0;"/><polygon fill="#181818" points="300.38,375.21,309.0035,370.4523,303.3996,371.2248,302.6272,365.6209,300.38,375.21" style="stroke:#181818;stroke-width:1.0;"/></g><!--link Gateway to UserCtrl--><g id="link_Gateway_UserCtrl"><path d="M380.79,315.72 C394.26,333.3 409.0694,352.6184 422.7394,370.4484 " fill="none" id="Gateway-to-UserCtrl" style="stroke:#181818;stroke-width:1.0;"/><polygon fill="#181818" points="426.39,375.21,424.0884,365.6338,423.3478,371.242,417.7396,370.5014,426.39,375.21" style="stroke:#181818;stroke-width:1.0;"/></g><!--link Gateway to CountryCtrl--><g id="link_Gateway_CountryCtrl"><path d="M423.27,301.82 C453.76,307.88 490.81,317.35 522,331.5 C546.91,342.8 567.413,356.9992 585.883,371.5992 " fill="none" id="Gateway-to-CountryCtrl" style="stroke:#181818;stroke-width:1.0;"/><polygon fill="#181818" points="590.59,375.32,586.01,366.6009,586.6675,372.2194,581.049,372.8769,590.59,375.32" style="stroke:#181818;stroke-width:1.0;"/></g><!--link AuthCtrl to AuthService--><g id="link_AuthCtrl_AuthService"><path d="M105.43,425.51 C104.26,443.38 103.0597,461.6427 101.9097,479.3127 " fill="none" id="AuthCtrl-to-AuthService" style="stroke:#181818;stroke-width:1.0;"/><polygon fill="#181818" points="101.52,485.3,106.0961,476.5788,101.8447,480.3106,98.1129,476.0592,101.52,485.3" style="stroke:#181818;stroke-width:1.0;"/></g><!--link ProgramCtrl to ProgramService--><g id="link_ProgramCtrl_ProgramService"><path d="M280.65,425.51 C279.65,443.38 278.6256,461.6394 277.6356,479.3094 " fill="none" id="ProgramCtrl-to-ProgramService" style="stroke:#181818;stroke-width:1.0;"/><polygon fill="#181818" points="277.3,485.3,281.7972,476.5379,277.5797,480.3078,273.8097,476.0903,277.3,485.3" style="stroke:#181818;stroke-width:1.0;"/></g><!--link UserCtrl to UserService--><g id="link_UserCtrl_UserService"><path d="M446.57,425.51 C447.74,443.38 448.9403,461.6427 450.0903,479.3127 " fill="none" id="UserCtrl-to-UserService" style="stroke:#181818;stroke-width:1.0;"/><polygon fill="#181818" points="450.48,485.3,453.8871,476.0592,450.1553,480.3106,445.9039,476.5788,450.48,485.3" style="stroke:#181818;stroke-width:1.0;"/></g><!--link CountryCtrl to CountryService--><g id="link_CountryCtrl_CountryService"><path d="M620.57,425.51 C621.74,443.38 622.9403,461.6427 624.0903,479.3127 " fill="none" id="CountryCtrl-to-CountryService" style="stroke:#181818;stroke-width:1.0;"/><polygon fill="#181818" points="624.48,485.3,627.8871,476.0592,624.1553,480.3106,619.9039,476.5788,624.48,485.3" style="stroke:#181818;stroke-width:1.0;"/></g><!--link ProgramService to DB--><g id="link_ProgramService_DB"><path d="M308.23,533.71 C328.88,548.17 356.49,566.76 382,581.5 C391.15,586.79 395.8478,589.3879 405.4378,594.1579 " fill="none" id="ProgramService-to-DB" style="stroke:#181818;stroke-width:1.0;"/><polygon fill="#181818" points="410.81,596.83,404.5332,589.2405,406.3332,594.6033,400.9704,596.4033,410.81,596.83" style="stroke:#181818;stroke-width:1.0;"/></g><!--link UserService to DB--><g id="link_UserService_DB"><path d="M452,533.65 C452,551.36 452,569.66 452,587.26 " fill="none" id="UserService-to-DB" style="stroke:#181818;stroke-width:1.0;"/><polygon fill="#181818" points="452,593.26,456,584.26,452,588.26,448,584.26,452,593.26" style="stroke:#181818;stroke-width:1.0;"/></g><!--link CountryService to DB--><g id="link_CountryService_DB"><path d="M594.44,533.77 C574.2,548.25 547.11,566.84 522,581.5 C512.87,586.83 508.181,589.4357 498.601,594.2057 " fill="none" id="CountryService-to-DB" style="stroke:#181818;stroke-width:1.0;"/><polygon fill="#181818" points="493.23,596.88,503.0694,596.4492,497.7059,594.6514,499.5037,589.2878,493.23,596.88" style="stroke:#181818;stroke-width:1.0;"/></g><!--link AuthService to JWT--><g id="link_AuthService_JWT"><path d="M100,533.65 C100,552.94 100,574.04 100,591.8 " fill="none" id="AuthService-to-JWT" style="stroke:#181818;stroke-width:1.0;"/><polygon fill="#181818" points="100,597.8,104,588.8,100,592.8,96,588.8,100,597.8" style="stroke:#181818;stroke-width:1.0;"/></g><!--SRC=[XPBHJiCm34NVynLMtySd87MRXa209jZ4isb32NH9bMR0XFXtKZTkNSIsFgKdrzStYR48paEMbpjZJHiybivdW2qGKTXlRzizUkDWPIpMjBrjjLUgmU8TAmtPoZiRj2qp-5OGlyBj6cUr3P0zw6W2CxZNN-7YhQLgOddJg1_XCO-B_otozJLSOT2VUA3oj5Qa6-hpVNY5HSpXNLrhppwz5z6aUTJ-mnIwFsO4Y-1h8HtRTk9RLvbYaAPIKl_ywR_shlAuEnU1PJ95OiU2SCcO9P5JSReNEfU5D3981uwb8F4OeVizrN_Xzh7BuLm4biaKYHqBmYLZbaIcSMAW4WC-OnlJt3bRkUMSrCkvUZ5rX3TF6zYuE7JzLCPVfMZkOJQx78UK3ZuXl20wJ6DQ41pcIaBvp98FjowXl0J5TeCt7rLOoXQypSv36zuGxh8RRwkf3qdYjGa7HjD2fafa91RlzXS0]--></g></svg>